HIERARCHY
ROOT Hips
{
     OFFSET 1.88212 96.90440 -13.34250
     CHANNELS 6 Xposition Yposition Zposition Zrotation Xrotation Yrotation
     JOINT Spine
     {
          OFFSET 0.00000 11.89050 0.00000
          CHANNELS 3 Zrotation Xrotation Yrotation
          JOINT Spine1
          {
               OFFSET -0.00000 25.65740 0.12766
               CHANNELS 3 Zrotation Xrotation Yrotation
               JOINT HEad
               {
                    OFFSET 0.00000 8.73416 0.01134
                    CHANNELS 3 Zrotation Xrotation Yrotation
                    End Site
                    {
                         OFFSET -0.29000 12.77420 2.51395
                    }
               }
               JOINT LeftShoulder1
               {
                    OFFSET 8.99000 -0.36225 -0.22000
                    CHANNELS 3 Zrotation Xrotation Yrotation
                    JOINT LeftArm
                    {
                         OFFSET 10.28270 -0.00338 0.32212
                         CHANNELS 3 Zrotation Xrotation Yrotation
                         JOINT LeftForeArm
                         {
                              OFFSET 32.76690 0.09914 -1.42434
                              CHANNELS 3 Zrotation Xrotation Yrotation
                              JOINT LeftHand
                              {
                                   OFFSET 27.56430 0.08536 1.02216
                                   CHANNELS 3 Zrotation Xrotation Yrotation
                                   End Site
                                   {
                                        OFFSET 16.74430 -0.60000 1.50291
                                   }
                              }
                         }
                    }
               }
               JOINT RightShoulder
               {
                    OFFSET -8.99000 -0.36225 -0.22000
                    CHANNELS 3 Zrotation Xrotation Yrotation
                    JOINT RightArm
                    {
                         OFFSET -10.28270 -0.00338 0.32212
                         CHANNELS 3 Zrotation Xrotation Yrotation
                         JOINT RightForeArm
                         {
                              OFFSET -32.89710 0.09914 -1.42434
                              CHANNELS 3 Zrotation Xrotation Yrotation
                              JOINT RightHand
                              {
                                   OFFSET -27.49210 0.08536 1.02216
                                   CHANNELS 3 Zrotation Xrotation Yrotation
                                   End Site
                                   {
                                        OFFSET -16.63120 -0.60000 1.50291
                                   }
                              }
                         }
                    }
               }
          }
     }
     JOINT LeftUpLeg
     {
          OFFSET 8.94580 -8.66707 0.10165
          CHANNELS 3 Zrotation Xrotation Yrotation
          JOINT LeftLeg
          {
               OFFSET 0.00000 -44.42270 1.37270
               CHANNELS 3 Zrotation Xrotation Yrotation
               JOINT LeftFoot
               {
                    OFFSET -0.25355 -42.09240 -1.46059
                    CHANNELS 3 Zrotation Xrotation Yrotation
                    JOINT LeftToes
                    {
                         OFFSET -0.04000 -4.41509 8.49910
                         CHANNELS 3 Zrotation Xrotation Yrotation
                         End Site
                         {
                              OFFSET 0.08000 -0.04745 9.77979
                         }
                    }
               }
          }
     }
     JOINT RightUpLeg
     {
          OFFSET -8.94580 -8.66707 0.10165
          CHANNELS 3 Zrotation Xrotation Yrotation
          JOINT RightLeg
          {
               OFFSET 0.00000 -44.42270 1.37270
               CHANNELS 3 Zrotation Xrotation Yrotation
               JOINT RightFoot
               {
                    OFFSET 0.25355 -42.09240 -1.46059
                    CHANNELS 3 Zrotation Xrotation Yrotation
                    JOINT RightToes
                    {
                         OFFSET 0.04000 -4.41509 8.49910
                         CHANNELS 3 Zrotation Xrotation Yrotation
                         End Site
                         {
                              OFFSET -0.08000 -0.13745 9.77979
                         }
                    }
               }
          }
     }
}
MOTION
Frames: 19
Frame Time: 0.01667
171.69125 98.02607 464.00406 -15.17553 -7.29884 -65.41073 20.01019 3.26361 -10.15798 -0.01300 0.08173 -0.06893 -16.57044 42.75365 22.13497 -3.30209 6.88721 1.74135 -84.02342 -66.21974 -96.28563 -20.70727 54.46699 -106.93060 10.36516 9.79837 7.03974 27.60616 8.27014 3.92944 37.62750 -31.20710 53.36169 20.11866 42.55832 106.29606 -6.12731 12.98003 -0.60159 13.30891 -15.17860 11.25688 1.86791 44.50039 -18.34324 -25.31408 -0.17217 -0.11745 4.83314 -13.91841 5.80791 -3.91011 -4.52475 9.81452 3.49533 21.56446 -0.72973 6.00091 -0.21887 0.02669 10.67501 -5.16513 -18.21412 
173.08112 98.18633 463.67838 -15.83825 -5.24404 -70.67339 25.14186 3.46469 -10.05095 -0.04785 0.03363 0.03021 -19.10031 44.40450 25.03261 -7.34727 7.93464 4.60308 -75.31833 -67.17406 -95.12975 -23.68647 50.48051 -101.83222 9.23240 9.16180 5.64312 23.00102 10.77178 6.23450 37.75847 -30.61287 54.67229 20.70197 42.39311 104.32981 -5.48140 12.30396 -0.26976 14.21038 -14.35021 16.36403 7.08152 43.35727 -25.52437 -28.92439 -0.12925 -0.08207 12.69454 -17.02822 -5.77107 -0.19457 -7.52998 8.54757 0.02989 23.48725 -1.71433 8.22519 0.10702 -0.09441 0.15910 -11.27013 -29.09238 
174.49898 98.26724 463.33405 -16.10699 -3.31392 -75.23011 28.80906 4.24726 -10.12071 -0.04356 0.02703 0.03396 -20.93207 45.45918 27.79465 -10.00658 8.37402 7.14698 -68.98450 -69.00981 -92.82239 -25.29320 47.76640 -98.81639 11.77668 8.95949 8.84955 19.24285 12.49711 8.68854 37.88298 -29.69894 55.93549 21.16230 41.73686 102.56567 -6.06562 11.85664 0.11110 14.19453 -13.03753 19.61118 11.26626 40.63027 -29.81947 -32.37455 -0.09943 -0.05534 14.21983 -17.74719 5.41280 2.60276 -10.42042 5.95868 -2.85498 26.91512 -3.63096 5.73942 -0.23517 -0.03502 7.21302 -5.75501 -15.83017 
175.92700 98.29302 462.93512 -16.04583 -1.60493 -79.15415 31.12479 5.39109 -10.17384 -0.03467 0.02463 0.03357 -21.97292 46.04657 30.18888 -11.51016 8.43804 9.28716 -64.24149 -71.25396 -89.76334 -26.35115 46.07884 -97.00587 10.70106 8.37743 6.77784 16.48854 13.57789 11.02655 37.80548 -28.71852 57.03657 21.55328 40.79837 101.07832 -5.48237 11.35614 0.46793 13.55876 -11.54727 21.15603 13.68040 37.33088 -30.99888 -30.15925 0.06145 0.01533 13.35963 -19.20405 4.58907 4.06797 -13.40899 2.21018 -5.40268 32.30890 -5.17233 7.70864 0.14230 0.00877 5.22665 -7.44158 -8.76131 
177.33569 98.25657 462.40277 -15.74827 -0.21573 -82.44128 32.23203 6.70408 -10.06866 -0.02465 0.02197 0.03229 -24.16205 45.80554 32.93013 -12.11287 8.26845 11.14347 -60.79976 -73.55859 -86.44110 -28.97193 42.85543 -90.44002 10.17361 8.50702 2.98326 14.69695 14.16016 13.09390 37.54591 -27.78123 57.92522 21.90353 39.70837 99.90890 -5.78185 10.84338 0.96656 12.66718 -10.12058 21.10070 15.42589 33.75047 -30.12616 -27.96084 0.05934 0.00414 9.97035 -19.68399 8.51885 3.76098 -16.43465 -2.38659 -7.96700 38.94038 -3.16406 5.56748 -0.16846 0.00267 8.33265 5.99878 -11.66661 
178.69592 98.15473 461.67279 -15.33136 0.81021 -85.08147 31.62777 9.17002 -9.40940 -0.08486 0.09718 0.04728 -25.42213 43.82263 34.87416 -10.62682 7.11502 12.01222 -59.00994 -77.99265 -80.06690 -30.25467 43.25927 -91.13125 8.23499 8.22469 -1.21146 15.00181 13.41698 14.61924 36.90721 -26.85546 58.58812 22.07437 38.64747 99.25157 -5.49374 10.32422 1.36298 11.90619 -8.91105 20.68173 16.98812 30.17738 -28.74561 -25.53894 0.05025 -0.01244 6.37588 -19.94144 9.04014 2.80210 -19.06019 -7.02651 -12.66214 45.77195 2.36416 5.64360 -0.05064 0.05959 6.88600 11.31358 -14.36992 
179.97815 97.96347 460.69196 -14.88983 1.45795 -87.08419 29.63600 12.33917 -7.79771 -0.06249 0.08565 0.06900 -25.82315 40.71565 35.54898 -7.52597 5.53115 11.78536 -54.26713 -82.78915 -67.99696 -30.38893 45.38212 -95.53641 8.18124 7.98449 -1.53478 17.03896 11.88855 15.22432 35.89565 -25.93301 58.91149 21.98349 37.80112 99.19774 -5.79486 9.61845 1.78143 11.31965 -7.96515 19.96671 17.94967 27.57679 -24.79826 -22.09691 -0.01221 -0.06337 1.02842 -19.45818 8.26520 0.42513 -20.92209 -11.14108 -18.94832 52.08292 10.72268 5.25065 -0.06168 0.02074 8.23982 3.48178 -8.45873 
181.16852 97.64914 459.41373 -14.48000 1.73751 -88.49270 26.54871 15.76262 -4.98694 -0.03702 0.06575 0.08221 -25.66356 37.00110 34.95866 -3.49699 3.58631 10.62658 -27.28180 -86.23022 -32.37934 -35.08271 46.60916 -94.91591 5.56836 11.27478 -6.26422 20.22047 9.70139 14.95035 34.71995 -25.05462 58.82072 21.57592 37.20317 99.76258 -5.69665 9.33471 1.96070 11.02662 -7.33327 19.02695 17.87820 26.02830 -18.93270 -17.34163 -0.11705 -0.09886 -4.97918 -18.04738 5.24624 -2.74261 -21.98738 -14.41691 -28.12233 58.05695 23.65870 -7.42887 0.04941 -0.70224 19.03065 14.08483 -18.23902 
182.32968 97.22488 457.81287 -13.37137 0.76086 -87.69429 22.09628 17.69027 -2.20311 -0.01351 0.04387 0.08828 -25.42504 33.21960 33.28938 0.47381 1.32005 8.77159 -0.15623 -90.00000 0.00000 -38.47621 47.41897 -94.35334 7.27545 2.09602 8.53953 23.88745 6.91407 13.72659 33.73418 -24.16796 58.44180 20.98522 36.85586 100.83450 -6.04119 8.74445 2.11952 9.84834 -8.08472 16.34344 17.65829 24.35699 -13.90217 -12.47590 -0.11404 -0.09377 -11.50620 -16.06768 3.07515 -7.95151 -22.71542 -18.61357 -40.59784 61.56567 39.50280 2.17342 -0.24996 0.50610 11.59065 2.92783 -14.11999 
183.50479 96.70116 455.87399 -11.53682 -1.06416 -85.03028 17.36865 17.65128 -0.87757 0.03538 -0.01895 -0.00738 -26.73598 29.72597 32.50560 4.21556 -0.39501 7.28389 20.68230 -84.06686 28.14337 -36.95720 48.19124 -100.24672 5.89787 7.38365 -2.14862 26.84426 4.63667 12.40971 32.41117 -19.15578 56.66718 16.20093 33.99702 104.54101 -6.06576 8.52568 2.12613 8.94386 -10.59255 12.56339 16.27147 23.49486 -9.87010 -7.13048 -0.11642 -0.10632 -17.95007 -14.64156 1.32253 -14.42757 -22.66135 -23.40454 -53.07161 62.08276 55.50142 2.59449 -0.04690 0.04928 13.95179 -0.58453 -16.60995 
184.71164 96.09479 453.61536 -9.91717 -2.63510 -82.56609 13.38957 17.53800 0.12827 0.03489 -0.02383 -0.01188 -28.14276 26.95007 31.55926 7.14756 -1.86490 6.13212 18.78766 -82.11106 30.62607 -36.52110 48.08412 -103.30682 5.07745 6.12242 4.58925 29.43232 2.80332 11.41210 31.40581 -16.11327 55.39942 13.78618 32.01418 107.14709 -6.23134 8.27361 2.08638 9.25263 -13.50463 9.76155 13.67218 23.34248 -6.66690 -1.19132 -0.12525 -0.10901 -24.31770 -12.99885 0.07499 -19.76017 -21.21420 -26.34005 -61.01793 60.02797 67.77702 8.85682 -0.19618 0.26354 11.82965 -6.86385 -18.01058 
185.97366 95.41362 451.09866 -8.44491 -3.91574 -80.32497 10.10597 17.32110 0.94703 0.03157 -0.02211 -0.01149 -29.63818 24.79757 30.65278 9.29852 -2.99852 5.26610 15.55811 -80.67487 30.06749 -36.55557 47.68305 -105.02624 4.31800 9.04814 -1.20388 31.55869 1.41722 10.66710 30.86244 -14.30266 54.59605 12.68028 30.84955 109.00854 -6.03665 8.29499 1.82390 10.49133 -16.77730 8.12486 10.09943 23.82107 -4.23592 5.22638 -0.12971 -0.09351 -30.32042 -11.44370 -0.91386 -23.66271 -18.76233 -27.44387 -62.47200 56.69931 74.37355 13.03572 -0.17239 0.14318 11.79616 -11.79215 -21.88210 
187.28893 94.67065 448.41913 -7.06416 -4.89333 -78.34000 7.43765 16.97821 1.67210 0.02686 -0.01885 -0.01167 -31.09657 23.13131 29.84788 10.78784 -3.82163 4.40218 13.54668 -79.51560 29.68077 -36.73327 47.15191 -105.82948 3.94555 8.34478 3.14384 33.16143 0.36811 10.07395 30.88548 -13.22704 54.30429 12.31943 30.33017 110.23401 -5.99395 8.38660 1.62906 11.63250 -19.74198 6.92729 6.48633 24.15236 -1.91482 11.76755 -0.12068 -0.07097 -35.86316 -10.13427 -1.70112 -26.12392 -15.58529 -26.90691 -56.37543 52.59799 75.55592 13.26738 -0.11691 0.06829 7.58396 -30.63507 -28.19600 
188.64680 93.91856 445.70731 -5.74636 -5.53992 -76.63992 5.35854 16.50848 2.36803 0.02287 -0.01423 -0.01045 -32.42952 21.80671 29.14639 11.76195 -4.31958 3.55482 12.81461 -78.64742 30.04344 -36.95715 46.69447 -106.30878 3.79058 9.84817 -0.46746 34.07741 -0.40007 9.63025 31.64356 -12.63509 54.54795 17.22447 32.36835 110.85553 -5.89410 13.20529 -0.88704 12.81683 -22.40196 6.13251 3.10129 24.24158 0.16960 18.09210 -0.10159 -0.05348 -41.00390 -8.68787 -2.43207 -27.36467 -11.87064 -25.01353 -46.19031 49.13903 70.61124 16.18511 -0.26103 -0.01240 2.23606 -40.04065 -27.65126 
190.02957 93.20803 443.05359 -4.51276 -5.89446 -75.24641 3.80260 15.96204 3.06526 0.01879 -0.00983 -0.01011 -33.58887 20.68812 28.55364 12.30173 -4.48694 2.67090 13.47733 -78.16852 31.50998 -37.31791 46.37413 -106.34896 3.88196 9.15237 2.06828 34.42694 -0.86641 9.19387 32.96561 -12.33356 55.36052 20.18904 33.69317 110.52619 -5.75309 15.85874 -2.29683 14.07235 -24.72219 5.70001 0.16830 24.01754 1.89287 23.93621 -0.07890 -0.04517 -45.74172 -7.62666 -3.20888 -27.67090 -7.77386 -21.98568 -34.88798 45.54025 61.84429 14.90565 -0.07855 0.00744 -8.07718 -48.05503 -31.69195 
191.39998 92.56169 440.50616 -3.40150 -5.99760 -74.15548 2.72519 15.40104 3.75988 0.01574 -0.00627 -0.01077 -33.45644 18.80731 28.48846 12.55192 -4.32064 1.78155 15.19771 -78.08257 34.02862 -37.77554 46.25577 -106.22694 4.04178 9.73742 -0.31996 34.15543 -1.07557 8.53789 34.86408 -12.06922 56.75948 21.92542 34.58372 109.70067 -5.57921 16.87641 -2.90562 15.38100 -26.66312 5.56654 -2.16795 23.47061 3.13326 29.11611 -0.05599 -0.04306 -49.56373 -6.24719 -3.79343 -27.34115 -3.43594 -17.97730 -24.11833 41.10333 50.98596 14.64564 -0.09829 -0.02108 -5.02439 -41.98276 -33.01016 
192.69312 91.97147 438.06998 -2.45634 -5.91011 -73.34592 2.06416 14.88107 4.42848 0.01306 -0.00361 -0.01216 -33.34377 17.07089 28.52279 12.53913 -3.88195 0.85983 17.90042 -78.31999 37.59692 -38.32924 46.34629 -105.92625 4.28707 9.04154 1.01024 33.53790 -1.02859 7.68416 36.97329 -11.75693 58.54442 22.88625 35.19037 108.63717 -5.57893 17.30609 -3.30713 16.69342 -28.19345 5.65506 -3.83770 22.65412 3.81066 33.50333 -0.03498 -0.04274 -52.66506 -5.13826 -4.38897 -26.61500 0.99520 -13.06375 -14.85983 35.54621 39.30299 12.98352 -0.09287 0.02118 -17.06228 -51.21470 -28.07199 
193.87230 91.42162 435.73303 -1.72342 -5.66917 -72.78801 1.77620 14.45091 5.04980 0.01090 -0.00135 -0.01333 -33.25433 15.49124 28.70042 12.30791 -3.19085 -0.02911 21.36251 -78.82551 42.06566 -39.00307 46.70019 -105.58890 4.47890 9.01121 -0.59475 32.80833 -0.71752 6.65772 39.00831 -11.40969 60.54474 23.37397 35.63440 107.51261 -5.58061 17.18468 -3.44784 17.80743 -29.37473 5.79826 -3.37915 22.28947 1.70914 35.65175 0.02712 -0.02839 -54.52028 -4.67937 -3.42770 -25.53730 5.27330 -7.31747 -7.75705 29.02437 27.62829 12.80621 -0.09795 -0.01846 -9.90050 -42.39608 -27.52271 
194.90889 90.92798 433.47928 -1.26681 -5.36656 -72.44125 1.76743 14.17183 5.59649 0.00866 -0.00087 -0.01428 -33.18495 14.10951 29.05283 11.88586 -2.41429 -0.83518 25.10100 -79.43297 46.89135 -39.84727 47.28130 -105.14117 4.71181 8.41298 0.04484 32.16040 -0.25774 5.64638 40.73571 -11.05426 62.37187 23.56514 35.97602 106.50353 -5.75957 16.89222 -3.48805 18.51908 -30.21871 5.84032 -1.59478 22.18954 -2.55520 36.31713 0.02800 -0.01315 -42.71693 5.05806 -7.98647 -24.82689 9.09990 -1.86089 -1.66263 23.95279 16.46041 9.27335 -0.17392 0.06550 -9.76503 -44.33096 -22.35330 
